<?xml version="1.0" encoding="UTF-8" standalone="no"?>
<!DOCTYPE svg PUBLIC "-//W3C//DTD SVG 1.1//EN" "http://www.w3.org/Graphics/SVG/1.1/DTD/svg11.dtd">
<svg width="100%" height="100%" viewBox="0 0 79 52" version="1.1" xmlns="http://www.w3.org/2000/svg" xmlns:xlink="http://www.w3.org/1999/xlink" xml:space="preserve" xmlns:serif="http://www.serif.com/" style="fill-rule:evenodd;clip-rule:evenodd;">
    <g transform="matrix(1,0,0,1,-191.97,-36.9187)">
        <g transform="matrix(0.433235,0,0,0.433235,196.081,39.5981)">
            <path d="M95.725,27.112C86.401,10.396 68.699,-0 49.558,0C20.559,0 -3.304,23.863 -3.304,52.862C-3.304,81.862 20.559,105.725 49.558,105.725C68.699,105.725 86.401,95.329 95.725,78.612" style="fill:rgb(254,255,255);fill-opacity:0;fill-rule:nonzero;stroke:rgb(4,14,41);stroke-width:3px;"/>
        </g>
        <g transform="matrix(0.433235,0,0,0.433235,196.081,39.5981)">
            <g transform="matrix(1,0,0,1,17.4,75.6125)">
                <path d="M21,0C28.8,0 35.1,-6.24 35.1,-13.91L35.1,-33.48C35.1,-40.11 29.57,-45.5 22.95,-45.5L14.69,-45.5C8.06,-45.5 2.6,-40.11 2.6,-33.48L2.6,-13.91C2.6,-6.24 8.84,0 16.64,0L21,0ZM17.23,-7.15C13.59,-7.15 10.4,-10.14 10.4,-13.91L10.4,-33.48C10.4,-36.2 12.61,-38.35 15.34,-38.35L22.3,-38.35C25.03,-38.35 27.3,-36.2 27.3,-33.48L27.3,-13.91C27.3,-10.14 24.12,-7.15 20.41,-7.15L17.23,-7.15ZM72.8,-33.8C72.8,-40.3 67.86,-45.5 61.1,-45.5L39,-45.5L39,-39.65L42.9,-39L42.9,-6.5L39,-5.85L39,0L59.8,0C67.15,0 73.45,-5.85 73.45,-13.33C73.45,-18.2 70.85,-22.1 67.6,-24.25C70.85,-26.32 72.8,-29.71 72.8,-33.8ZM50.7,-27.95L50.7,-38.35L59.8,-38.35C62.66,-38.35 65,-36.08 65,-33.15C65,-30.23 62.66,-27.95 59.8,-27.95L50.7,-27.95ZM65.65,-12.68C65.65,-9.55 62.79,-7.15 59.8,-7.15L50.7,-7.15L50.7,-20.8L59.8,-20.8C62.79,-20.8 65.65,-18.33 65.65,-15.28L65.65,-12.68ZM97.83,-27.95L87.75,-45.5L76.7,-45.5L76.7,-39.65L80.6,-39L80.6,-6.5L76.7,-5.85L76.7,0L92.3,0L92.3,-5.85L88.4,-6.5L88.4,-29.9L97.83,-13.65L107.25,-29.9L107.25,-6.5L103.35,-5.85L103.35,0L118.95,0L118.95,-5.85L115.05,-6.5L115.05,-39L118.95,-39.65L118.95,-45.5L107.9,-45.5L97.83,-27.95ZM141.44,-19.18C144.17,-18.53 146.25,-16.25 146.25,-13.33C146.25,-9.95 143.46,-7.15 140.07,-7.15L130,-7.15L129.35,-11.05L123.5,-11.05L123.5,0L140.53,0C148,0 154.05,-5.98 154.05,-13.46C154.05,-19.82 149.63,-25.16 143.65,-26.46L133.25,-28.73C131.5,-29.12 130,-30.62 130,-32.5L130,-34.45C130,-36.59 131.63,-38.35 134.35,-38.35L144.95,-38.35L145.6,-34.45L151.45,-34.45L151.45,-45.5L134.35,-45.5C127.59,-45.5 122.2,-40.17 122.2,-33.48C122.2,-27.43 126.1,-22.62 131.3,-21.45L141.44,-19.18Z" style="fill:rgb(4,14,41);fill-rule:nonzero;"/>
            </g>
        </g>
    </g>
</svg>
